HIERARCHY
ROOT hip
{
  OFFSET 0 0 0
  CHANNELS 6 Xposition Yposition Zposition Zrotation Yrotation Xrotation
  JOINT abdomen
  {
    OFFSET 0 20.6881 -0.73152
    CHANNELS 3 Zrotation Xrotation Yrotation
    JOINT chest
    {
      OFFSET 0 11.7043 -0.48768
      CHANNELS 3 Zrotation Xrotation Yrotation
      JOINT neck
      {
        OFFSET 0 22.1894 -2.19456
        CHANNELS 3 Zrotation Xrotation Yrotation
        JOINT head
        {
          OFFSET -0.24384 7.07133 1.2192
          CHANNELS 3 Zrotation Xrotation Yrotation
          JOINT leftEye
          {
            OFFSET 4.14528 8.04674 8.04672
            CHANNELS 3 Zrotation Xrotation Yrotation
            End Site
            {
              OFFSET 1 0 0
            }
          }
          JOINT rightEye
          {
            OFFSET -3.6576 8.04674 8.04672
            CHANNELS 3 Zrotation Xrotation Yrotation
            End Site
            {
              OFFSET 1 0 0
            }
          }
        }
      }
      JOINT rCollar
      {
        OFFSET -2.68224 19.2634 -4.8768
        CHANNELS 3 Zrotation Xrotation Yrotation
        JOINT rShldr
        {
          OFFSET -8.77824 -1.95073 1.46304
          CHANNELS 3 Zrotation Xrotation Yrotation
          JOINT rForeArm
          {
            OFFSET -28.1742 -1.7115 0.48768
            CHANNELS 3 Zrotation Xrotation Yrotation
            JOINT rHand
            {
              OFFSET -22.5879 0.773209 7.07136
              CHANNELS 3 Zrotation Xrotation Yrotation
              JOINT rThumb1
              {
                OFFSET -1.2192 -0.487915 3.41376
                CHANNELS 3 Zrotation Xrotation Yrotation
                JOINT rThumb2
                {
                  OFFSET -3.37035 -0.52449 3.41376
                  CHANNELS 3 Zrotation Xrotation Yrotation
                  End Site
                  {
                    OFFSET -1.78271 -1.18214 1.43049
                  }
                }
              }
              JOINT rIndex1
              {
                OFFSET -7.75947 0.938293 5.60832
                CHANNELS 3 Zrotation Xrotation Yrotation
                JOINT rIndex2
                {
                  OFFSET -2.54057 -0.884171 1.56538
                  CHANNELS 3 Zrotation Xrotation Yrotation
                  End Site
                  {
                    OFFSET -1.62519 -0.234802 1.16502
                  }
                }
              }
              JOINT rMid1
              {
                OFFSET -8.24714 1.18213 3.41376
                CHANNELS 3 Zrotation Xrotation Yrotation
                JOINT rMid2
                {
                  OFFSET -3.10165 -0.590103 1.0647
                  CHANNELS 3 Zrotation Xrotation Yrotation
                  End Site
                  {
                    OFFSET -2.48547 -0.328903 0.83742
                  }
                }
              }
              JOINT rRing1
              {
                OFFSET -8.82822 0.546677 1.51678
                CHANNELS 3 Zrotation Xrotation Yrotation
                JOINT rRing2
                {
                  OFFSET -2.60934 -0.819778 -0.0198488
                  CHANNELS 3 Zrotation Xrotation Yrotation
                  End Site
                  {
                    OFFSET -2.33842 -0.294052 0.168128
                  }
                }
              }
              JOINT rPinky1
              {
                OFFSET -8.27202 -0.0477905 -0.4584
                CHANNELS 3 Zrotation Xrotation Yrotation
                JOINT rPinky2
                {
                  OFFSET -1.82734 -0.647385 -0.700984
                  CHANNELS 3 Zrotation Xrotation Yrotation
                  End Site
                  {
                    OFFSET -1.69225 -0.51767 -0.607171
                  }
                }
              }
            }
          }
        }
      }
      JOINT lCollar
      {
        OFFSET 2.68224 19.2634 -4.8768
        CHANNELS 3 Zrotation Xrotation Yrotation
        JOINT lShldr
        {
          OFFSET 8.77824 -1.95073 1.46304
          CHANNELS 3 Zrotation Xrotation Yrotation
          JOINT lForeArm
          {
            OFFSET 28.1742 -1.7115 0.48768
            CHANNELS 3 Zrotation Xrotation Yrotation
            JOINT lHand
            {
              OFFSET 22.5879 0.773209 7.07136
              CHANNELS 3 Zrotation Xrotation Yrotation
              JOINT lThumb1
              {
                OFFSET 1.2192 -0.487915 3.41376
                CHANNELS 3 Zrotation Xrotation Yrotation
                JOINT lThumb2
                {
                  OFFSET 3.37035 -0.52449 3.41376
                  CHANNELS 3 Zrotation Xrotation Yrotation
                  End Site
                  {
                    OFFSET 1.78271 -1.18214 1.43049
                  }
                }
              }
              JOINT lIndex1
              {
                OFFSET 7.75947 0.938293 5.60832
                CHANNELS 3 Zrotation Xrotation Yrotation
                JOINT lIndex2
                {
                  OFFSET 2.54057 -0.884171 1.56538
                  CHANNELS 3 Zrotation Xrotation Yrotation
                  End Site
                  {
                    OFFSET 1.62519 -0.234802 1.16502
                  }
                }
              }
              JOINT lMid1
              {
                OFFSET 8.24714 1.18213 3.41376
                CHANNELS 3 Zrotation Xrotation Yrotation
                JOINT lMid2
                {
                  OFFSET 3.10165 -0.590103 1.0647
                  CHANNELS 3 Zrotation Xrotation Yrotation
                  End Site
                  {
                    OFFSET 2.48547 -0.328903 0.83742
                  }
                }
              }
              JOINT lRing1
              {
                OFFSET 8.82822 0.546677 1.51678
                CHANNELS 3 Zrotation Xrotation Yrotation
                JOINT lRing2
                {
                  OFFSET 2.60934 -0.819778 -0.0198488
                  CHANNELS 3 Zrotation Xrotation Yrotation
                  End Site
                  {
                    OFFSET 2.33842 -0.294052 0.168128
                  }
                }
              }
              JOINT lPinky1
              {
                OFFSET 8.27202 -0.0477905 -0.4584
                CHANNELS 3 Zrotation Xrotation Yrotation
                JOINT lPinky2
                {
                  OFFSET 1.82734 -0.647385 -0.700984
                  CHANNELS 3 Zrotation Xrotation Yrotation
                  End Site
                  {
                    OFFSET 1.69225 -0.51767 -0.607171
                  }
                }
              }
            }
          }
        }
      }
    }
  }
  JOINT rButtock
  {
    OFFSET -8.77824 4.35084 1.2192
    CHANNELS 3 Zrotation Xrotation Yrotation
    JOINT rThigh
    {
      OFFSET 0 -1.70687 -2.19456
      CHANNELS 3 Zrotation Xrotation Yrotation
      JOINT rShin
      {
        OFFSET 0 -36.8199 0.73152
        CHANNELS 3 Zrotation Xrotation Yrotation
        JOINT rFoot
        {
          OFFSET 0.73152 -45.1104 -5.12064
          CHANNELS 3 Zrotation Xrotation Yrotation
          End Site
          {
            OFFSET -1.1221 -3.69964 12.103
          }
        }
      }
    }
  }
  JOINT lButtock
  {
    OFFSET 8.77824 4.35084 1.2192
    CHANNELS 3 Zrotation Xrotation Yrotation
    JOINT lThigh
    {
      OFFSET 0 -1.70687 -2.19456
      CHANNELS 3 Zrotation Xrotation Yrotation
      JOINT lShin
      {
        OFFSET 0 -36.8199 0.73152
        CHANNELS 3 Zrotation Xrotation Yrotation
        JOINT lFoot
        {
          OFFSET -0.73152 -45.1104 -5.12064
          CHANNELS 3 Zrotation Xrotation Yrotation
          End Site
          {
            OFFSET 1.1221 -3.69964 12.103
          }
        }
      }
    }
  }
}
MOTION
Frames:	4
Frame Time:	0.00833333
-38.8695 83.3738 -24.2751 -0.838 -4.0419 -5.3267 -4.66098 14.1953 5.8275 1.13097 -0.879285 1.51683 1.99356 4.40824 3.7387 -10.543 -1.79001 6.79221 -0.0 0.0 0.0 -0.0 0.0 0.0 4.26125e-14 -2.31092e-14 -2.51897e-14 70.4783 17.5854 -1.79534 -17.9777 -10.6554 33.9925 -0.0044788 2.01149 0.282747 -4.20338e-11 -2.28139e-10 -6.07858e-11 -7.33214e-11 -3.94076e-10 -1.04343e-10 -4.20301e-11 -2.28133e-10 -6.07993e-11 7.73091 5.47488 0.417314 -4.20362e-11 -2.28138e-10 -6.07838e-11 2.90554 0.965183 0.102902 -4.20269e-11 -2.28139e-10 -6.0781e-11 10.2786 0.731801 0.0259123 -4.20368e-11 -2.28141e-10 -6.07717e-11 2.22167 -0.733487 -0.20892 4.25012e-14 -2.31092e-14 -2.54196e-14 -67.5665 38.3154 -10.1024 20.8113 -14.0635 -40.7027 0.236307 -13.7425 1.96942 -5.06485e-11 -1.95173e-10 6.10114e-11 -8.8025e-11 -3.39506e-10 1.04532e-10 -5.06537e-11 -1.95174e-10 6.10305e-11 -7.73091 5.47488 -0.417314 -5.06483e-11 -1.95174e-10 6.10146e-11 -2.90554 0.965183 -0.102902 -5.06559e-11 -1.95174e-10 6.10113e-11 -10.2786 0.731801 -0.0259123 -5.06446e-11 -1.95171e-10 6.10026e-11 -2.22167 -0.733487 0.20892 -2.03217e-16 0.0 -3.88251e-19 -5.13701 -18.8696 5.60513 -0.333862 40.9563 0.759421 -3.04343 -12.9547 -7.68956 2.03217e-16 0.0 3.88251e-19 15.852 -23.5306 -17.1044 0.298758 37.151 -0.504935 2.709 -3.79672 10.9284
-39.571 83.391 -24.4556 -0.0693 -3.3532 -5.4161 -5.46291 14.3166 5.67663 1.32359 -0.768283 1.44854 2.12544 4.10955 3.64437 -10.6551 -1.5615 6.59471 -0.0 0.0 0.0 -0.0 0.0 0.0 3.88795e-14 1.58568e-14 -3.89579e-14 70.679 16.823 -1.85645 -17.8257 -10.4984 33.6373 -0.00809703 2.6665 0.374981 -1.1502e-10 -2.14895e-10 -3.84474e-10 -2.00929e-10 -3.71058e-10 -6.65585e-10 -1.15017e-10 -2.14887e-10 -3.84489e-10 7.73091 5.47488 0.417314 -1.15024e-10 -2.14892e-10 -3.84473e-10 2.90554 0.965183 0.102902 -1.15017e-10 -2.14892e-10 -3.84471e-10 10.2786 0.731801 0.0259123 -1.15024e-10 -2.14894e-10 -3.84462e-10 2.22167 -0.733487 -0.20892 3.87383e-14 1.58605e-14 -3.9201e-14 -67.7406 38.0667 -10.1194 20.771 -14.0106 -40.5963 0.216672 -13.1641 1.88352 -2.09005e-11 -1.18141e-10 5.30302e-11 -3.58495e-11 -2.05089e-10 9.17807e-11 -2.09058e-11 -1.18141e-10 5.30514e-11 -7.73091 5.47488 -0.417314 -2.08991e-11 -1.18141e-10 5.30334e-11 -2.90554 0.965183 -0.102902 -2.09077e-11 -1.1814e-10 5.30303e-11 -10.2786 0.731801 -0.0259123 -2.08997e-11 -1.1814e-10 5.30207e-11 -2.22167 -0.733487 0.20892 -2.03217e-16 0.0 -3.88251e-19 -5.58024 -19.2129 4.87631 -0.343351 41.5065 0.781056 -2.9018 -13.1673 -7.23066 2.03217e-16 0.0 3.88251e-19 14.8023 -24.1284 -15.1769 0.328609 38.8612 -0.567001 3.31481 -5.95188 11.7597
-40.327 83.4125 -24.6379 0.3498 -2.6172 -5.5543 -5.8992 14.4511 5.47099 1.48988 -0.737193 1.37889 2.17901 3.90032 3.55164 -10.6837 -1.36984 6.41561 -0.0 0.0 0.0 -0.0 0.0 0.0 3.59553e-14 4.77046e-14 -4.63665e-14 70.808 16.2166 -1.98307 -17.6892 -10.3564 33.3267 -0.0119233 3.11605 0.438368 -2.15312e-10 -8.2669e-11 -6.38849e-10 -3.75446e-10 -1.42247e-10 -1.10632e-09 -2.1531e-10 -8.26586e-11 -6.38865e-10 7.73091 5.47488 0.417314 -2.15317e-10 -8.26646e-11 -6.38849e-10 2.90554 0.965183 0.102902 -2.15311e-10 -8.26642e-11 -6.38849e-10 10.2786 0.731801 0.0259123 -2.15317e-10 -8.2665e-11 -6.3884e-10 2.22167 -0.733487 -0.20892 3.58083e-14 4.77106e-14 -4.6615e-14 -67.8221 38.0198 -10.2052 20.6775 -13.8885 -40.3512 0.202524 -12.7162 1.81738 -1.6162e-11 -5.65646e-11 3.66654e-11 -2.68761e-11 -9.7379e-11 6.41089e-11 -1.61676e-11 -5.65626e-11 3.66877e-11 -7.73091 5.47488 -0.417314 -1.61599e-11 -5.65633e-11 3.66686e-11 -2.90554 0.965183 -0.102902 -1.61692e-11 -5.65627e-11 3.66654e-11 -10.2786 0.731801 -0.0259123 -1.61632e-11 -5.6563e-11 3.66559e-11 -2.22167 -0.733487 0.20892 -2.03217e-16 0.0 -3.88251e-19 -5.73709 -19.5284 4.05552 -0.351614 41.9697 0.799001 -2.7875 -13.2923 -6.89403 2.03217e-16 0.0 3.88251e-19 14.0076 -24.7901 -13.2123 0.367321 40.8192 -0.632413 3.81695 -7.60096 12.3695
-41.2173 83.4291 -24.8646 0.0687 -1.9679 -5.6272 -5.81564 14.6318 5.2027 1.61135 -0.844126 1.31139 2.10307 3.81716 3.44859 -10.5665 -1.21815 6.2437 -0.0 0.0 0.0 -0.0 0.0 0.0 3.32642e-14 7.54475e-14 -4.39535e-14 70.8342 15.8301 -2.2002 -17.5634 -10.2236 33.0511 -0.0139922 3.29367 0.463439 -3.75077e-10 2.84826e-10 -8.14953e-10 -6.5246e-10 4.93493e-10 -1.41073e-09 -3.75073e-10 2.84835e-10 -8.14969e-10 7.73091 5.47488 0.417314 -3.75079e-10 2.84829e-10 -8.14954e-10 2.90554 0.965183 0.102902 -3.75073e-10 2.8483e-10 -8.14955e-10 10.2786 0.731801 0.0259123 -3.7508e-10 2.84829e-10 -8.14948e-10 2.22167 -0.733487 -0.20892 3.31476e-14 7.54539e-14 -4.41954e-14 -67.7234 38.3109 -10.4266 20.4977 -13.654 -39.8917 0.197047 -12.5214 1.78879 -3.95667e-11 1.49835e-11 1.17802e-12 -6.63166e-11 2.79203e-11 2.80139e-12 -3.95729e-11 1.49855e-11 1.20024e-12 -7.73091 5.47488 -0.417314 -3.95646e-11 1.49847e-11 1.1812e-12 -2.90554 0.965183 -0.102902 -3.95743e-11 1.49852e-11 1.1776e-12 -10.2786 0.731801 -0.0259123 -3.95685e-11 1.4985e-11 1.16955e-12 -2.22167 -0.733487 0.20892 -2.03217e-16 0.0 -3.88251e-19 -5.47054 -19.7915 3.12854 -0.357415 42.309 0.812556 -2.72118 -13.301 -6.74758 2.03217e-16 0.0 3.88251e-19 13.6039 -25.5657 -11.1713 0.41772 43.091 -0.702239 4.13434 -8.59553 12.7026
